<svg width="24" height="24" viewBox="0 0 24 24" fill="none" xmlns="http://www.w3.org/2000/svg">
<path d="M23 4V10H17" stroke="white" stroke-width="2" stroke-linecap="round" stroke-linejoin="round"/>
<path d="M1 20V14H7" stroke="white" stroke-width="2" stroke-linecap="round" stroke-linejoin="round"/>
<path d="M10.0083 3.22427C8.52547 3.55978 7.1518 4.26545 6.01547 5.27543C4.87913 6.28542 4.01717 7.5668 3.51 9.00001L3.66149 8.60211L3.83682 8.20065L4 7.86851L4.20159 7.5L4.43863 7.11263L4.70951 6.71752L5 6.33866L5.28837 6L5.57415 5.69525L5.88308 5.39547L6.1768 5.13543L6.5 4.87419L6.79808 4.65405L7.13197 4.42898L7.47353 4.22026L7.83477 4.02133L8.34761 3.77434L8.87785 3.55922L9.44274 3.37169L10.0083 3.22427ZM10.0083 3.22427C11.4911 2.88877 13.0348 2.93436 14.4952 3.35679M10.0083 3.22427L10.5 3.12732L11 3.05749L11.5 3.01597L12 3L12.6214 3.02424L13.2376 3.08865L13.8887 3.20399L14.4952 3.35679M14.4952 3.35679C15.9556 3.77922 17.2853 4.56473 18.36 5.64001L23 10L19.4315 6.64688L17.741 5.07579L17.3032 4.73482L16.842 4.41941L16.3882 4.14775L15.8446 3.8675L15.1832 3.58622L14.4952 3.35679ZM1 14L5.64 18.36C6.71475 19.4353 8.04437 20.2208 9.50481 20.6432C10.9652 21.0657 12.5089 21.1113 13.9917 20.7758C15.4745 20.4402 16.8482 19.7346 17.9845 18.7246C19.1209 17.7146 19.9828 16.4332 20.49 15" stroke="white" stroke-width="2" stroke-linecap="round" stroke-linejoin="round"/>
</svg>
